<svg width="12" height="12" viewBox="0 0 12 12" fill="none" xmlns="http://www.w3.org/2000/svg">
<path d="M10.6667 2.50002H9.39499C9.45916 2.31919 9.49999 2.12085 9.49999 1.91669C9.49999 0.948354 8.71832 0.166687 7.74999 0.166687C7.13749 0.166687 6.60666 0.481687 6.29166 0.954187L5.99999 1.34502L5.70832 0.948354C5.39332 0.481687 4.86249 0.166687 4.24999 0.166687C3.28166 0.166687 2.49999 0.948354 2.49999 1.91669C2.49999 2.12085 2.54082 2.31919 2.60499 2.50002H1.33332C0.685823 2.50002 0.17249 3.01919 0.17249 3.66669L0.166656 10.0834C0.166656 10.7309 0.685823 11.25 1.33332 11.25H10.6667C11.3142 11.25 11.8333 10.7309 11.8333 10.0834V3.66669C11.8333 3.01919 11.3142 2.50002 10.6667 2.50002ZM7.74999 1.33335C8.07082 1.33335 8.33332 1.59585 8.33332 1.91669C8.33332 2.23752 8.07082 2.50002 7.74999 2.50002C7.42916 2.50002 7.16666 2.23752 7.16666 1.91669C7.16666 1.59585 7.42916 1.33335 7.74999 1.33335ZM4.24999 1.33335C4.57082 1.33335 4.83332 1.59585 4.83332 1.91669C4.83332 2.23752 4.57082 2.50002 4.24999 2.50002C3.92916 2.50002 3.66666 2.23752 3.66666 1.91669C3.66666 1.59585 3.92916 1.33335 4.24999 1.33335ZM10.6667 10.0834H1.33332V8.91669H10.6667V10.0834ZM10.6667 7.16669H1.33332V3.66669H4.29666L3.08332 5.31752L4.02832 6.00002L5.41666 4.11002L5.99999 3.31669L6.58332 4.11002L7.97166 6.00002L8.91666 5.31752L7.70332 3.66669H10.6667V7.16669Z" fill="#C28558"/>
</svg>
