<svg width="12" height="11" viewBox="0 0 12 11" fill="none" xmlns="http://www.w3.org/2000/svg">
<path d="M10.0833 0H1.91667C1.26917 0 0.75 0.45 0.75 1V8C0.75 8.55 1.26917 9 1.91667 9H4.25L6 10.5L7.75 9H10.0833C10.725 9 11.25 8.55 11.25 8V1C11.25 0.45 10.725 0 10.0833 0ZM6.58333 8H5.41667V7H6.58333V8ZM7.79083 4.125L7.26583 4.585C6.84583 4.95 6.58333 5.25 6.58333 6H5.41667V5.75C5.41667 5.2 5.67917 4.7 6.09917 4.335L6.8225 3.705C7.03833 3.525 7.16667 3.275 7.16667 3C7.16667 2.45 6.64167 2 6 2C5.35833 2 4.83333 2.45 4.83333 3H3.66667C3.66667 1.895 4.71083 1 6 1C7.28917 1 8.33333 1.895 8.33333 3C8.33333 3.44 8.12333 3.84 7.79083 4.125Z" fill="#C28558"/>
</svg>
