<svg width="12" height="12" viewBox="0 0 12 12" fill="none" xmlns="http://www.w3.org/2000/svg">
<path d="M10.165 6.54836C10.1883 6.37336 10.2 6.19252 10.2 6.00002C10.2 5.81336 10.1883 5.62669 10.1592 5.45169L11.3433 4.53002C11.4483 4.44836 11.4775 4.29086 11.4133 4.17419L10.2933 2.23752C10.2233 2.10919 10.0775 2.06836 9.94916 2.10919L8.55499 2.66919C8.26333 2.44752 7.95416 2.26086 7.60999 2.12086L7.39999 0.639191C7.37666 0.499191 7.25999 0.400024 7.11999 0.400024H4.87999C4.73999 0.400024 4.62916 0.499191 4.60583 0.639191L4.39583 2.12086C4.05166 2.26086 3.73666 2.45336 3.45083 2.66919L2.05666 2.10919C1.92833 2.06252 1.78249 2.10919 1.71249 2.23752L0.598326 4.17419C0.528326 4.29669 0.551659 4.44836 0.668326 4.53002L1.85249 5.45169C1.82333 5.62669 1.79999 5.81919 1.79999 6.00002C1.79999 6.18086 1.81166 6.37336 1.84083 6.54836L0.656659 7.47002C0.551659 7.55169 0.522493 7.70919 0.586659 7.82586L1.70666 9.76252C1.77666 9.89086 1.92249 9.93169 2.05083 9.89086L3.44499 9.33086C3.73666 9.55252 4.04583 9.73919 4.38999 9.87919L4.59999 11.3609C4.62916 11.5009 4.73999 11.6 4.87999 11.6H7.11999C7.25999 11.6 7.37666 11.5009 7.39416 11.3609L7.60416 9.87919C7.94833 9.73919 8.26333 9.55252 8.54916 9.33086L9.94333 9.89086C10.0717 9.93752 10.2175 9.89086 10.2875 9.76252L11.4075 7.82586C11.4775 7.69752 11.4483 7.55169 11.3375 7.47002L10.165 6.54836ZM5.99999 8.10002C4.84499 8.10002 3.89999 7.15502 3.89999 6.00002C3.89999 4.84502 4.84499 3.90002 5.99999 3.90002C7.15499 3.90002 8.09999 4.84502 8.09999 6.00002C8.09999 7.15502 7.15499 8.10002 5.99999 8.10002Z" fill="#C28558"/>
</svg>
