<svg width="20" height="17" viewBox="0 0 20 17" fill="none" xmlns="http://www.w3.org/2000/svg">
<path d="M14.5 0C12.76 0 11.09 0.750409 10 1.93624C8.91 0.750409 7.24 0 5.5 0C2.42 0 0 2.24196 0 5.09537C0 8.59728 3.4 11.4507 8.55 15.7864L10 17L11.45 15.7771C16.6 11.4507 20 8.59728 20 5.09537C20 2.24196 17.58 0 14.5 0ZM10.1 14.406L10 14.4986L9.9 14.406C5.14 10.4131 2 7.77275 2 5.09537C2 3.24251 3.5 1.85286 5.5 1.85286C7.04 1.85286 8.54 2.77003 9.07 4.03924H10.94C11.46 2.77003 12.96 1.85286 14.5 1.85286C16.5 1.85286 18 3.24251 18 5.09537C18 7.77275 14.86 10.4131 10.1 14.406Z" fill="#ED6767"/>
</svg>
